<svg
    xmlns="http://www.w3.org/2000/svg"
    viewBox="0 0 1144.78809 326.99904"
    fill="#2a3850">
    <g class="pops">
      <path
        d="m72,84.59962c8.79883-4.80078,19.09766-7.2002,30.90039-7.2002,13.7998,0,26.29688,3.50098,37.5,10.5,11.19824,7.00293,20.04883,17.00098,26.5498,30,6.49707,13.00293,9.75,28.10156,9.75,45.2998,0,17.20312-3.25293,32.35352-9.75,45.4502-6.50098,13.10156-15.35156,23.20312-26.5498,30.2998-11.20312,7.10156-23.7002,10.65039-37.5,10.65039-11.60156,0-21.85352-2.40039-30.75-7.2002-8.90137-4.7998-15.85352-10.99707-20.84961-18.60059v103.2002H0V79.79884h51.30078v23.7002c4.99609-7.7998,11.89648-14.09961,20.69922-18.89941Zm41.85059,48.44922c-7.10156-7.29785-15.85352-10.94922-26.25-10.94922-10.2002,0-18.85352,3.70312-25.9502,11.09961-7.10156,7.40137-10.65039,17.50293-10.65039,30.2998,0,12.80176,3.54883,22.90332,10.65039,30.2998,7.09668,7.40234,15.75,11.10059,25.9502,11.10059s18.89941-3.75,26.09961-11.25,10.7998-17.64844,10.7998-30.4502c0-12.79688-3.55273-22.84668-10.64941-30.15039Z"></path>
      <path
        d="m235.64648,239.09962c-13.10156-6.99902-23.40039-16.99707-30.90039-30-7.5-12.99902-11.25-28.2002-11.25-45.60059,0-17.19824,3.79688-32.34863,11.40039-45.4502,7.59766-13.09668,18-23.14648,31.19922-30.14941,13.2002-6.99902,27.99902-10.5,44.40039-10.5,16.39648,0,31.2002,3.50098,44.40039,10.5,13.19922,7.00293,23.59668,17.05273,31.19922,30.14941,7.59863,13.10156,11.40039,28.25195,11.40039,45.4502,0,17.20312-3.85352,32.35352-11.5498,45.4502-7.70215,13.10156-18.20215,23.15137-31.5,30.15039-13.30371,7.00293-28.15332,10.5-44.5498,10.5-16.40234,0-31.15332-3.49707-44.25-10.5Zm69.2998-44.7002c6.89941-7.2002,10.34961-17.49902,10.34961-30.90039,0-13.39648-3.35156-23.7002-10.0498-30.89941-6.70312-7.2002-14.95312-10.80078-24.75-10.80078-10.00293,0-18.2998,3.55371-24.90039,10.65039-6.59961,7.10156-9.89941,17.45117-9.89941,31.0498,0,13.40137,3.24805,23.7002,9.75,30.90039,6.49707,7.2002,14.64844,10.7998,24.4502,10.7998,9.79688,0,18.14941-3.59961,25.0498-10.7998Z"></path>
      <path
        d="m466.79395,84.59962c8.79883-4.80078,19.09668-7.2002,30.90039-7.2002,13.7998,0,26.29688,3.50098,37.5,10.5,11.19824,7.00293,20.04785,17.00098,26.5498,30,6.49707,13.00293,9.75,28.10156,9.75,45.2998,0,17.20312-3.25293,32.35352-9.75,45.4502-6.50195,13.10156-15.35156,23.20312-26.5498,30.2998-11.20312,7.10156-23.7002,10.65039-37.5,10.65039-11.60156,0-21.85352-2.40039-30.75-7.2002-8.90137-4.7998-15.85352-10.99707-20.85059-18.60059v103.2002h-51.2998V79.79884h51.2998v23.7002c4.99707-7.7998,11.89746-14.09961,20.7002-18.89941Zm41.85059,48.44922c-7.10156-7.29785-15.85352-10.94922-26.25-10.94922-10.2002,0-18.85352,3.70312-25.9502,11.09961-7.10156,7.40137-10.65039,17.50293-10.65039,30.2998,0,12.80176,3.54883,22.90332,10.65039,30.2998,7.09668,7.40234,15.75,11.10059,25.9502,11.10059,10.19922,0,18.89941-3.75,26.09961-11.25s10.7998-17.64844,10.7998-30.4502c0-12.79688-3.55273-22.84668-10.64941-30.15039Z"></path>
      <path
        d="m627.58984,242.09962c-11.40039-4.99707-20.40039-11.85059-27-20.55078-6.59961-8.69922-10.30273-18.44922-11.09961-29.25h50.69922c.59961,5.80371,3.30078,10.5,8.09961,14.10059,4.80078,3.59961,10.69727,5.39941,17.70117,5.39941,6.39844,0,11.34766-1.24609,14.84961-3.75,3.49609-2.49805,5.25-5.74609,5.25-9.75,0-4.7998-2.50391-8.34766-7.5-10.64941-5.00195-2.29688-13.10156-4.84668-24.30078-7.65039-12-2.79785-22.00195-5.74707-30-8.84961-8.00098-3.09863-14.90039-7.99707-20.69922-14.7002-5.80273-6.69824-8.7002-15.75-8.7002-27.15039,0-9.59961,2.64844-18.34668,7.9502-26.25,5.29688-7.89844,13.09668-14.14648,23.40039-18.75,10.29785-4.59766,22.54688-6.89941,36.75-6.89941,21,0,37.54688,5.20312,49.64941,15.59961,12.09863,10.40137,19.0498,24.20215,20.85059,41.40039h-47.40039c-.80176-5.79883-3.35156-10.39746-7.65039-13.7998-4.30273-3.39844-9.95117-5.10059-16.94922-5.10059-6,0-10.60352,1.15332-13.80078,3.4502-3.20117,2.30176-4.7998,5.45117-4.7998,9.4502,0,4.7998,2.5498,8.39941,7.64941,10.7998,5.10059,2.40039,13.05078,4.7998,23.85059,7.2002,12.39844,3.20117,22.5,6.35156,30.2998,9.4502,7.80078,3.10254,14.64844,8.09961,20.55078,15,5.89648,6.89941,8.94727,16.15234,9.14941,27.75,0,9.80078-2.75098,18.55273-8.25,26.25-5.50293,7.70117-13.40137,13.75293-23.7002,18.14941-10.30273,4.39746-22.25195,6.60059-35.84961,6.60059-14.60156,0-27.59961-2.49902-39-7.5Z"></path>
      <path
        d="m627.59082,242.09865c-11.40039-4.99609-20.40039-11.84961-27-20.54883-6.60059-8.70117-10.30371-18.45117-11.10059-29.25h50.7002c.60059,5.80273,3.2998,10.5,8.10059,14.09961,4.7998,3.59961,10.69629,5.40039,17.69922,5.40039,6.39844,0,11.34863-1.24805,14.85059-3.75,3.49707-2.49902,5.25-5.74805,5.25-9.75,0-4.80078-2.50293-8.34961-7.5-10.65039-5.00195-2.29688-13.10156-4.84766-24.2998-7.65039-12-2.79883-22.00391-5.74609-30-8.84961-8.00195-3.09863-14.90234-7.99707-20.7002-14.7002-5.80371-6.69824-8.7002-15.75-8.7002-27.14941,0-9.60059,2.64844-18.34766,7.9502-26.25,5.29688-7.89844,13.09668-14.14746,23.39941-18.75,10.29883-4.59961,22.54688-6.90039,36.75-6.90039,21,0,37.54688,5.20312,49.65039,15.59961,12.09863,10.40234,19.0498,24.20117,20.84961,41.40039h-47.39941c-.80176-5.79883-3.35156-10.39648-7.65039-13.80078-4.30273-3.39844-9.95117-5.09961-16.9502-5.09961-6,0-10.60254,1.15332-13.7998,3.4502-3.20117,2.30176-4.7998,5.45215-4.7998,9.4502,0,4.7998,2.5498,8.40039,7.65039,10.7998,5.09961,2.39941,13.0498,4.7998,23.84961,7.2002,12.39844,3.20117,22.5,6.35156,30.2998,9.44922,7.7998,3.10352,14.64844,8.10059,20.5498,15,5.89746,6.90039,8.94922,16.1543,9.15039,27.75,0,9.80273-2.75195,18.55371-8.25,26.25-5.50293,7.70215-13.40137,13.75391-23.7002,18.15039-10.30273,4.39648-22.25098,6.59961-35.84961,6.59961-14.60156,0-27.60059-2.49805-39-7.5Z"></path>
    </g>
    <g class="up">
      <path
        d="m1040.08789,84.59962c8.79883-4.80078,19.09766-7.2002,30.90039-7.2002,13.7998,0,26.29688,3.50098,37.5,10.5,11.19824,7.00293,20.04883,17.00098,26.5498,30,6.49707,13.00293,9.75,28.10156,9.75,45.2998,0,17.20312-3.25293,32.35352-9.75,45.4502-6.50098,13.10156-15.35156,23.20312-26.5498,30.2998-11.20312,7.10156-23.7002,10.65039-37.5,10.65039-11.60156,0-21.85352-2.40039-30.75-7.2002-8.90137-4.7998-15.85352-10.99707-20.84961-18.60059v103.2002h-51.30078V79.79884h51.30078v23.7002c4.99609-7.7998,11.89648-14.09961,20.69922-18.89941Zm41.85059,48.44922c-7.10156-7.29785-15.85352-10.94922-26.25-10.94922-10.2002,0-18.85352,3.70312-25.9502,11.09961-7.10156,7.40137-10.65039,17.50293-10.65039,30.2998,0,12.80176,3.54883,22.90332,10.65039,30.2998,7.09668,7.40234,15.75,11.10059,25.9502,11.10059s18.89941-3.75,26.09961-11.25,10.7998-17.64844,10.7998-30.4502c0-12.79688-3.55273-22.84668-10.64941-30.15039Z"></path>
      <path
        d="m882.8554,162.59856c0,12.60059-3.01605,22.30371-9.04446,29.10059-6.0321,6.80176-14.69748,10.2002-26.00352,10.2002s-19.8831-3.39844-25.72198-10.2002c-5.84256-6.79688-8.76108-16.5-8.76108-29.10059v-82.28947h-48.33405v81.99064c0,18.80078,3.5773,34.75195,10.74111,47.84961,7.15828,13.10156,16.91029,22.90234,29.25419,29.40039,12.3393,6.50098,26.33015,9.75,41.97349,9.75,15.63873,0,29.82005-3.30078,42.53934-9.90039,12.71929-6.59961,22.84578-16.39648,30.38498-29.40039,7.53368-12.99805,11.30604-28.89844,11.30604-47.69922v-81.99064h-48.33405v82.28947Z"></path>
      <polygon
        fill="#6366f1"
        points="813.32415 33.59814 882.8554 33.59814 848.08977 0 813.32415 33.59814"></polygon>
    </g>
  </svg>