<svg xmlns="http://www.w3.org/2000/svg" viewBox="0 0 64.57 64.57"><defs></defs><g id="Logo_s" data-name="Logo&amp;apos;s"><path id="ootb-logo-icon-blauw" fill="#fff" d="m46.88,34.94l-19.45,19.09c-.3.29-.69.38-1.04.3-.65-.14-.98-.88-.78-1.51l1.18-3.66c.2-.62.39-1.24.56-1.86,1.05-3.71-.19-7.6-2.86-10.38-1.16-1.2-1.86-2.84-1.86-4.64s.71-3.44,1.86-4.64c2.67-2.78,3.91-6.67,2.86-10.38-.18-.62-.37-1.25-.56-1.86l-1.18-3.66c-.2-.63.13-1.36.78-1.51.35-.08.74,0,1.04.3l19.45,19.09c1.49,1.46,1.49,3.85,0,5.31M32.29,0C14.46,0,0,14.46,0,32.29s14.46,32.29,32.29,32.29,32.29-14.46,32.29-32.29S50.12,0,32.29,0"/></g><script xmlns=""/></svg>