<svg id="favicon" viewBox="0 0 16 16" xmlns="http://www.w3.org/2000/svg">
<style>
        #favicon .hero__logo__icon{
            fill: #2a3850;
        }
        @media (prefers-color-scheme:dark) {
            #favicon .hero__logo__icon{
                fill: #ffffff;
            }
        }
    </style>
    <path class="hero__logo__icon" d="M 10.215 10.435 C 10.215 11.244 10.021 11.867 9.634 12.303 C 9.247 12.74 8.691 12.958 7.965 12.958 C 7.239 12.958 6.689 12.74 6.315 12.303 C 5.939 11.867 5.752 11.244 5.752 10.435 L 5.752 5.154 C 5.752 5.154 2.65 5.154 2.65 5.154 L 2.65 10.417 C 2.65 11.623 2.879 12.647 3.339 13.487 C 3.799 14.328 4.425 14.957 5.217 15.375 C 6.009 15.791 6.907 16 7.911 16 C 8.915 16 9.825 15.788 10.641 15.365 C 11.457 14.941 12.107 14.313 12.591 13.478 C 13.075 12.643 13.317 11.623 13.317 10.417 L 13.317 5.154 C 13.317 5.154 10.215 5.154 10.215 5.154 L 10.215 10.435 Z" style=""/>
    <polygon fill="#6366f1" points="5.752 2.156 10.215 2.157 7.983 0 5.752 2.156"/>
</svg>
