<svg id="favicon" xmlns="http://www.w3.org/2000/svg" viewBox="0 0 184.75425 277.13247">
<style>
        #favicon .hero__logo__icon{
            fill: #2a3850;
        }
        @media (prefers-color-scheme:dark) {
            #favicon .hero__logo__icon{
                fill: #ffffff;
            }
        }
    </style>
    <path class="hero__logo__icon" d="m131.02398,180.75167c0,14.00736-3.35277,24.79378-10.05423,32.34948-6.70554,7.56113-16.33837,11.33898-28.90665,11.33898-12.56829,0-22.10292-3.77786-28.59367-11.33899-6.49484-7.5557-9.73919-18.34212-9.73919-32.34948v-91.47656s-53.73023,0-53.73023,0v91.14437c-.00002,20.89977,3.97666,38.63179,11.94026,53.19172,7.95746,14.56427,18.79822,25.45925,32.52023,32.68276,13.7169,7.22677,29.26975,10.83853,46.65956,10.83853,17.3847,0,33.14927-3.66929,47.28859-11.0057,14.13932-7.33641,25.39637-18.22704,33.77728-32.68275,8.37477-14.4492,12.56829-32.12476,12.5683-53.02453v-91.14437s-53.73023,0-53.73023,0v91.47656Z" />
    <polygon fill="#6366f1" points="53.73003 37.34916 131.02401 37.34917 92.37703 0 53.73003 37.34916" />
</svg>