<svg id="favicon" width="16" height="16" viewBox="0 0 16 16" fill="none" xmlns="http://www.w3.org/2000/svg">
    <circle fill="white" cx="8" cy="8" r="8"/>
    <path fill="#2a3850" d="M9.67357 9.89526C9.67357 10.492 9.52808 10.9515 9.23784 11.2731C8.9476 11.5954 8.53061 11.7562 7.98613 11.7562C7.44164 11.7562 7.02916 11.5954 6.74866 11.2731C6.46667 10.9515 6.32643 10.492 6.32643 9.89526V6H4V9.88198C4 10.7715 4.17174 11.5268 4.51673 12.1464C4.86172 12.7667 5.33121 13.2307 5.92519 13.539C6.51917 13.8458 7.19265 14 7.94563 14C8.6986 14 9.38108 13.8436 9.99306 13.5316C10.605 13.2189 11.0925 12.7557 11.4555 12.1398C11.8185 11.5239 12 10.7715 12 9.88198V6H9.67357V9.89526Z"/>
    <path d="M6 3.99907L10 4L7.99955 2L6 3.99907Z" fill="#6366F1"/>
</svg>
